<svg version="1.1" viewBox="0 0 512 512" xmlns="http://www.w3.org/2000/svg">
<path d="m156.6 384.9-30.9-31.8c-8.5-7.6-11.5-20-8.6-31.3 3-8.9 7-20.5 12.7-33.8h-105.8c-8.62 0-16.586-4.6-20.854-12.1-4.269-7.5-4.188-16.7 0.211-24.1l52.473-88.5c12.96-21.9 36.5-36.2 61.97-36.2h82.2c2.4-3.1 4.8-6.8 7.2-10.4 81.9-120.77 203.9-124.84 276.7-111.42 11.7 2.139 20.7 11.155 22.8 22.785 13.4 72.84 9.4 194.84-111.4 276.74-3.5 2.4-8.2 4.8-11.3 6.3v83.1c0 25.5-13.4 49-35.3 62l-88.5 52.4c-7.4 4.4-16.6 4.5-24.1 0.3-7.5-4.3-12.1-12.3-12.1-20.9v-107.2c-14.1 4.8-26.4 8.9-35.7 11.9-11.2 3.6-23.4 0.5-31.7-7.8zm227.4-217.8c22.1 0 40-17 40-40 0-21.2-17.9-40-40-40s-40 18.8-40 40c0 23 17.9 40 40 40z" fill="#00a015"/>
</svg>
